<mxfile host="app.diagrams.net" agent="Mozilla/5.0 (Windows NT 10.0; Win64; x64; rv:142.0) Gecko/20100101 Firefox/142.0" version="28.2.7">
  <diagram name="Страница — 1" id="kZnsRlTLTq1_zCNEGTzP">
    <mxGraphModel dx="2246" dy="1449" grid="1" gridSize="10" guides="1" tooltips="1" connect="1" arrows="1" fold="1" page="1" pageScale="1" pageWidth="827" pageHeight="1169" math="0" shadow="0">
      <root>
        <mxCell id="0" />
        <mxCell id="1" parent="0" />
        <mxCell id="djiI9uQT8ii3HJ8XC2zc-2" value="Игра" style="swimlane;fontStyle=1;align=center;verticalAlign=top;childLayout=stackLayout;horizontal=1;startSize=27.764705882352942;horizontalStack=0;resizeParent=1;resizeParentMax=0;resizeLast=0;collapsible=0;marginBottom=0;labelBorderColor=none;fontSize=20;fontFamily=Times New Roman;" vertex="1" parent="1">
          <mxGeometry x="1165" y="330" width="385" height="483.7647058823529" as="geometry" />
        </mxCell>
        <mxCell id="djiI9uQT8ii3HJ8XC2zc-3" value="-поле: Поле" style="text;strokeColor=none;fillColor=none;align=left;verticalAlign=top;spacingLeft=4;spacingRight=4;overflow=hidden;rotatable=0;points=[[0,0.5],[1,0.5]];portConstraint=eastwest;labelBorderColor=none;fontSize=20;fontFamily=Times New Roman;" vertex="1" parent="djiI9uQT8ii3HJ8XC2zc-2">
          <mxGeometry y="27.764705882352942" width="385" height="28" as="geometry" />
        </mxCell>
        <mxCell id="djiI9uQT8ii3HJ8XC2zc-4" value="-текущая: Фигура" style="text;strokeColor=none;fillColor=none;align=left;verticalAlign=top;spacingLeft=4;spacingRight=4;overflow=hidden;rotatable=0;points=[[0,0.5],[1,0.5]];portConstraint=eastwest;labelBorderColor=none;fontSize=20;fontFamily=Times New Roman;" vertex="1" parent="djiI9uQT8ii3HJ8XC2zc-2">
          <mxGeometry y="55.76470588235294" width="385" height="28" as="geometry" />
        </mxCell>
        <mxCell id="djiI9uQT8ii3HJ8XC2zc-5" value="-x:int" style="text;strokeColor=none;fillColor=none;align=left;verticalAlign=top;spacingLeft=4;spacingRight=4;overflow=hidden;rotatable=0;points=[[0,0.5],[1,0.5]];portConstraint=eastwest;labelBorderColor=none;fontSize=20;fontFamily=Times New Roman;" vertex="1" parent="djiI9uQT8ii3HJ8XC2zc-2">
          <mxGeometry y="83.76470588235294" width="385" height="28" as="geometry" />
        </mxCell>
        <mxCell id="djiI9uQT8ii3HJ8XC2zc-6" value="-y:int" style="text;strokeColor=none;fillColor=none;align=left;verticalAlign=top;spacingLeft=4;spacingRight=4;overflow=hidden;rotatable=0;points=[[0,0.5],[1,0.5]];portConstraint=eastwest;labelBorderColor=none;fontSize=20;fontFamily=Times New Roman;" vertex="1" parent="djiI9uQT8ii3HJ8XC2zc-2">
          <mxGeometry y="111.76470588235294" width="385" height="28" as="geometry" />
        </mxCell>
        <mxCell id="djiI9uQT8ii3HJ8XC2zc-7" value="-счёт: Счётчик" style="text;strokeColor=none;fillColor=none;align=left;verticalAlign=top;spacingLeft=4;spacingRight=4;overflow=hidden;rotatable=0;points=[[0,0.5],[1,0.5]];portConstraint=eastwest;labelBorderColor=none;fontSize=20;fontFamily=Times New Roman;" vertex="1" parent="djiI9uQT8ii3HJ8XC2zc-2">
          <mxGeometry y="139.76470588235293" width="385" height="28" as="geometry" />
        </mxCell>
        <mxCell id="djiI9uQT8ii3HJ8XC2zc-8" value="-состояние: СостояниеИгры" style="text;strokeColor=none;fillColor=none;align=left;verticalAlign=top;spacingLeft=4;spacingRight=4;overflow=hidden;rotatable=0;points=[[0,0.5],[1,0.5]];portConstraint=eastwest;labelBorderColor=none;fontSize=20;fontFamily=Times New Roman;" vertex="1" parent="djiI9uQT8ii3HJ8XC2zc-2">
          <mxGeometry y="167.76470588235293" width="385" height="28" as="geometry" />
        </mxCell>
        <mxCell id="djiI9uQT8ii3HJ8XC2zc-9" value="-рендер: Отрисовщик" style="text;strokeColor=none;fillColor=none;align=left;verticalAlign=top;spacingLeft=4;spacingRight=4;overflow=hidden;rotatable=0;points=[[0,0.5],[1,0.5]];portConstraint=eastwest;labelBorderColor=none;fontSize=20;fontFamily=Times New Roman;" vertex="1" parent="djiI9uQT8ii3HJ8XC2zc-2">
          <mxGeometry y="195.76470588235293" width="385" height="28" as="geometry" />
        </mxCell>
        <mxCell id="djiI9uQT8ii3HJ8XC2zc-10" value="-ввод: Ввод" style="text;strokeColor=none;fillColor=none;align=left;verticalAlign=top;spacingLeft=4;spacingRight=4;overflow=hidden;rotatable=0;points=[[0,0.5],[1,0.5]];portConstraint=eastwest;labelBorderColor=none;fontSize=20;fontFamily=Times New Roman;" vertex="1" parent="djiI9uQT8ii3HJ8XC2zc-2">
          <mxGeometry y="223.76470588235293" width="385" height="28" as="geometry" />
        </mxCell>
        <mxCell id="djiI9uQT8ii3HJ8XC2zc-11" value="-генератор: ГенераторФигур" style="text;strokeColor=none;fillColor=none;align=left;verticalAlign=top;spacingLeft=4;spacingRight=4;overflow=hidden;rotatable=0;points=[[0,0.5],[1,0.5]];portConstraint=eastwest;labelBorderColor=none;fontSize=20;fontFamily=Times New Roman;" vertex="1" parent="djiI9uQT8ii3HJ8XC2zc-2">
          <mxGeometry y="251.76470588235293" width="385" height="28" as="geometry" />
        </mxCell>
        <mxCell id="djiI9uQT8ii3HJ8XC2zc-12" style="line;strokeWidth=1;fillColor=none;align=left;verticalAlign=middle;spacingTop=-1;spacingLeft=3;spacingRight=3;rotatable=0;labelPosition=right;points=[];portConstraint=eastwest;strokeColor=inherit;labelBorderColor=none;fontSize=20;fontFamily=Times New Roman;" vertex="1" parent="djiI9uQT8ii3HJ8XC2zc-2">
          <mxGeometry y="279.7647058823529" width="385" height="8" as="geometry" />
        </mxCell>
        <mxCell id="djiI9uQT8ii3HJ8XC2zc-13" value="+запустить() : : void" style="text;strokeColor=none;fillColor=none;align=left;verticalAlign=top;spacingLeft=4;spacingRight=4;overflow=hidden;rotatable=0;points=[[0,0.5],[1,0.5]];portConstraint=eastwest;labelBorderColor=none;fontSize=20;fontFamily=Times New Roman;" vertex="1" parent="djiI9uQT8ii3HJ8XC2zc-2">
          <mxGeometry y="287.7647058823529" width="385" height="28" as="geometry" />
        </mxCell>
        <mxCell id="djiI9uQT8ii3HJ8XC2zc-14" value="+шаг() : : void" style="text;strokeColor=none;fillColor=none;align=left;verticalAlign=top;spacingLeft=4;spacingRight=4;overflow=hidden;rotatable=0;points=[[0,0.5],[1,0.5]];portConstraint=eastwest;labelBorderColor=none;fontSize=20;fontFamily=Times New Roman;" vertex="1" parent="djiI9uQT8ii3HJ8XC2zc-2">
          <mxGeometry y="315.7647058823529" width="385" height="28" as="geometry" />
        </mxCell>
        <mxCell id="djiI9uQT8ii3HJ8XC2zc-15" value="+сменитьСостояние(с:СостояниеИгры) : : void" style="text;strokeColor=none;fillColor=none;align=left;verticalAlign=top;spacingLeft=4;spacingRight=4;overflow=hidden;rotatable=0;points=[[0,0.5],[1,0.5]];portConstraint=eastwest;labelBorderColor=none;fontSize=20;fontFamily=Times New Roman;" vertex="1" parent="djiI9uQT8ii3HJ8XC2zc-2">
          <mxGeometry y="343.7647058823529" width="385" height="28" as="geometry" />
        </mxCell>
        <mxCell id="djiI9uQT8ii3HJ8XC2zc-16" value="+уронить() : : void" style="text;strokeColor=none;fillColor=none;align=left;verticalAlign=top;spacingLeft=4;spacingRight=4;overflow=hidden;rotatable=0;points=[[0,0.5],[1,0.5]];portConstraint=eastwest;labelBorderColor=none;fontSize=20;fontFamily=Times New Roman;" vertex="1" parent="djiI9uQT8ii3HJ8XC2zc-2">
          <mxGeometry y="371.7647058823529" width="385" height="28" as="geometry" />
        </mxCell>
        <mxCell id="djiI9uQT8ii3HJ8XC2zc-17" value="+влево() : : void" style="text;strokeColor=none;fillColor=none;align=left;verticalAlign=top;spacingLeft=4;spacingRight=4;overflow=hidden;rotatable=0;points=[[0,0.5],[1,0.5]];portConstraint=eastwest;labelBorderColor=none;fontSize=20;fontFamily=Times New Roman;" vertex="1" parent="djiI9uQT8ii3HJ8XC2zc-2">
          <mxGeometry y="399.7647058823529" width="385" height="28" as="geometry" />
        </mxCell>
        <mxCell id="djiI9uQT8ii3HJ8XC2zc-18" value="+вправо() : : void" style="text;strokeColor=none;fillColor=none;align=left;verticalAlign=top;spacingLeft=4;spacingRight=4;overflow=hidden;rotatable=0;points=[[0,0.5],[1,0.5]];portConstraint=eastwest;labelBorderColor=none;fontSize=20;fontFamily=Times New Roman;" vertex="1" parent="djiI9uQT8ii3HJ8XC2zc-2">
          <mxGeometry y="427.7647058823529" width="385" height="28" as="geometry" />
        </mxCell>
        <mxCell id="djiI9uQT8ii3HJ8XC2zc-19" value="+повернуть() : : void" style="text;strokeColor=none;fillColor=none;align=left;verticalAlign=top;spacingLeft=4;spacingRight=4;overflow=hidden;rotatable=0;points=[[0,0.5],[1,0.5]];portConstraint=eastwest;labelBorderColor=none;fontSize=20;fontFamily=Times New Roman;" vertex="1" parent="djiI9uQT8ii3HJ8XC2zc-2">
          <mxGeometry y="455.7647058823529" width="385" height="28" as="geometry" />
        </mxCell>
        <mxCell id="djiI9uQT8ii3HJ8XC2zc-20" value="Поле" style="swimlane;fontStyle=1;align=center;verticalAlign=top;childLayout=stackLayout;horizontal=1;startSize=32;horizontalStack=0;resizeParent=1;resizeParentMax=0;resizeLast=0;collapsible=0;marginBottom=0;labelBorderColor=none;fontSize=20;fontFamily=Times New Roman;" vertex="1" parent="1">
          <mxGeometry x="230" y="610" width="430" height="264" as="geometry" />
        </mxCell>
        <mxCell id="djiI9uQT8ii3HJ8XC2zc-21" value="-ширина:int" style="text;strokeColor=none;fillColor=none;align=left;verticalAlign=top;spacingLeft=4;spacingRight=4;overflow=hidden;rotatable=0;points=[[0,0.5],[1,0.5]];portConstraint=eastwest;labelBorderColor=none;fontSize=20;fontFamily=Times New Roman;" vertex="1" parent="djiI9uQT8ii3HJ8XC2zc-20">
          <mxGeometry y="32" width="430" height="32" as="geometry" />
        </mxCell>
        <mxCell id="djiI9uQT8ii3HJ8XC2zc-22" value="-высота:int" style="text;strokeColor=none;fillColor=none;align=left;verticalAlign=top;spacingLeft=4;spacingRight=4;overflow=hidden;rotatable=0;points=[[0,0.5],[1,0.5]];portConstraint=eastwest;labelBorderColor=none;fontSize=20;fontFamily=Times New Roman;" vertex="1" parent="djiI9uQT8ii3HJ8XC2zc-20">
          <mxGeometry y="64" width="430" height="32" as="geometry" />
        </mxCell>
        <mxCell id="djiI9uQT8ii3HJ8XC2zc-23" value="-сетка: Клетка[][]" style="text;strokeColor=none;fillColor=none;align=left;verticalAlign=top;spacingLeft=4;spacingRight=4;overflow=hidden;rotatable=0;points=[[0,0.5],[1,0.5]];portConstraint=eastwest;labelBorderColor=none;fontSize=20;fontFamily=Times New Roman;" vertex="1" parent="djiI9uQT8ii3HJ8XC2zc-20">
          <mxGeometry y="96" width="430" height="32" as="geometry" />
        </mxCell>
        <mxCell id="djiI9uQT8ii3HJ8XC2zc-24" style="line;strokeWidth=1;fillColor=none;align=left;verticalAlign=middle;spacingTop=-1;spacingLeft=3;spacingRight=3;rotatable=0;labelPosition=right;points=[];portConstraint=eastwest;strokeColor=inherit;labelBorderColor=none;fontSize=20;fontFamily=Times New Roman;" vertex="1" parent="djiI9uQT8ii3HJ8XC2zc-20">
          <mxGeometry y="128" width="430" height="8" as="geometry" />
        </mxCell>
        <mxCell id="djiI9uQT8ii3HJ8XC2zc-25" value="+можноПоставить(ф:Фигура, x:int, y:int) : : boolean" style="text;strokeColor=none;fillColor=none;align=left;verticalAlign=top;spacingLeft=4;spacingRight=4;overflow=hidden;rotatable=0;points=[[0,0.5],[1,0.5]];portConstraint=eastwest;labelBorderColor=none;fontSize=20;fontFamily=Times New Roman;" vertex="1" parent="djiI9uQT8ii3HJ8XC2zc-20">
          <mxGeometry y="136" width="430" height="32" as="geometry" />
        </mxCell>
        <mxCell id="djiI9uQT8ii3HJ8XC2zc-26" value="+поставить(ф:Фигура, x:int, y:int) : : void" style="text;strokeColor=none;fillColor=none;align=left;verticalAlign=top;spacingLeft=4;spacingRight=4;overflow=hidden;rotatable=0;points=[[0,0.5],[1,0.5]];portConstraint=eastwest;labelBorderColor=none;fontSize=20;fontFamily=Times New Roman;" vertex="1" parent="djiI9uQT8ii3HJ8XC2zc-20">
          <mxGeometry y="168" width="430" height="32" as="geometry" />
        </mxCell>
        <mxCell id="djiI9uQT8ii3HJ8XC2zc-27" value="+очиститьЛинии() : : int" style="text;strokeColor=none;fillColor=none;align=left;verticalAlign=top;spacingLeft=4;spacingRight=4;overflow=hidden;rotatable=0;points=[[0,0.5],[1,0.5]];portConstraint=eastwest;labelBorderColor=none;fontSize=20;fontFamily=Times New Roman;" vertex="1" parent="djiI9uQT8ii3HJ8XC2zc-20">
          <mxGeometry y="200" width="430" height="32" as="geometry" />
        </mxCell>
        <mxCell id="djiI9uQT8ii3HJ8XC2zc-28" value="+вПределах(x:int, y:int) : : boolean" style="text;strokeColor=none;fillColor=none;align=left;verticalAlign=top;spacingLeft=4;spacingRight=4;overflow=hidden;rotatable=0;points=[[0,0.5],[1,0.5]];portConstraint=eastwest;labelBorderColor=none;fontSize=20;fontFamily=Times New Roman;" vertex="1" parent="djiI9uQT8ii3HJ8XC2zc-20">
          <mxGeometry y="232" width="430" height="32" as="geometry" />
        </mxCell>
        <mxCell id="djiI9uQT8ii3HJ8XC2zc-29" value="Клетка" style="swimlane;fontStyle=1;align=center;verticalAlign=top;childLayout=stackLayout;horizontal=1;startSize=34.666666666666664;horizontalStack=0;resizeParent=1;resizeParentMax=0;resizeLast=0;collapsible=0;marginBottom=0;labelBorderColor=none;fontSize=20;fontFamily=Times New Roman;" vertex="1" parent="1">
          <mxGeometry x="230" y="1034.88" width="268" height="217.66666666666666" as="geometry" />
        </mxCell>
        <mxCell id="djiI9uQT8ii3HJ8XC2zc-30" value="-занята:boolean" style="text;strokeColor=none;fillColor=none;align=left;verticalAlign=top;spacingLeft=4;spacingRight=4;overflow=hidden;rotatable=0;points=[[0,0.5],[1,0.5]];portConstraint=eastwest;labelBorderColor=none;fontSize=20;fontFamily=Times New Roman;" vertex="1" parent="djiI9uQT8ii3HJ8XC2zc-29">
          <mxGeometry y="34.666666666666664" width="268" height="35" as="geometry" />
        </mxCell>
        <mxCell id="djiI9uQT8ii3HJ8XC2zc-31" value="-цвет:int" style="text;strokeColor=none;fillColor=none;align=left;verticalAlign=top;spacingLeft=4;spacingRight=4;overflow=hidden;rotatable=0;points=[[0,0.5],[1,0.5]];portConstraint=eastwest;labelBorderColor=none;fontSize=20;fontFamily=Times New Roman;" vertex="1" parent="djiI9uQT8ii3HJ8XC2zc-29">
          <mxGeometry y="69.66666666666666" width="268" height="35" as="geometry" />
        </mxCell>
        <mxCell id="djiI9uQT8ii3HJ8XC2zc-32" style="line;strokeWidth=1;fillColor=none;align=left;verticalAlign=middle;spacingTop=-1;spacingLeft=3;spacingRight=3;rotatable=0;labelPosition=right;points=[];portConstraint=eastwest;strokeColor=inherit;labelBorderColor=none;fontSize=20;fontFamily=Times New Roman;" vertex="1" parent="djiI9uQT8ii3HJ8XC2zc-29">
          <mxGeometry y="104.66666666666666" width="268" height="8" as="geometry" />
        </mxCell>
        <mxCell id="djiI9uQT8ii3HJ8XC2zc-33" value="+есть() : : boolean" style="text;strokeColor=none;fillColor=none;align=left;verticalAlign=top;spacingLeft=4;spacingRight=4;overflow=hidden;rotatable=0;points=[[0,0.5],[1,0.5]];portConstraint=eastwest;labelBorderColor=none;fontSize=20;fontFamily=Times New Roman;" vertex="1" parent="djiI9uQT8ii3HJ8XC2zc-29">
          <mxGeometry y="112.66666666666666" width="268" height="35" as="geometry" />
        </mxCell>
        <mxCell id="djiI9uQT8ii3HJ8XC2zc-34" value="+установить(цвет:int) : : void" style="text;strokeColor=none;fillColor=none;align=left;verticalAlign=top;spacingLeft=4;spacingRight=4;overflow=hidden;rotatable=0;points=[[0,0.5],[1,0.5]];portConstraint=eastwest;labelBorderColor=none;fontSize=20;fontFamily=Times New Roman;" vertex="1" parent="djiI9uQT8ii3HJ8XC2zc-29">
          <mxGeometry y="147.66666666666666" width="268" height="35" as="geometry" />
        </mxCell>
        <mxCell id="djiI9uQT8ii3HJ8XC2zc-35" value="+очистить() : : void" style="text;strokeColor=none;fillColor=none;align=left;verticalAlign=top;spacingLeft=4;spacingRight=4;overflow=hidden;rotatable=0;points=[[0,0.5],[1,0.5]];portConstraint=eastwest;labelBorderColor=none;fontSize=20;fontFamily=Times New Roman;" vertex="1" parent="djiI9uQT8ii3HJ8XC2zc-29">
          <mxGeometry y="182.66666666666666" width="268" height="35" as="geometry" />
        </mxCell>
        <mxCell id="djiI9uQT8ii3HJ8XC2zc-36" value="Счётчик" style="swimlane;fontStyle=1;align=center;verticalAlign=top;childLayout=stackLayout;horizontal=1;startSize=33.142857142857146;horizontalStack=0;resizeParent=1;resizeParentMax=0;resizeLast=0;collapsible=0;marginBottom=0;labelBorderColor=none;fontSize=20;fontFamily=Times New Roman;" vertex="1" parent="1">
          <mxGeometry x="546" y="320.86" width="281" height="239.14285714285714" as="geometry" />
        </mxCell>
        <mxCell id="djiI9uQT8ii3HJ8XC2zc-37" value="-очки:int" style="text;strokeColor=none;fillColor=none;align=left;verticalAlign=top;spacingLeft=4;spacingRight=4;overflow=hidden;rotatable=0;points=[[0,0.5],[1,0.5]];portConstraint=eastwest;labelBorderColor=none;fontSize=20;fontFamily=Times New Roman;" vertex="1" parent="djiI9uQT8ii3HJ8XC2zc-36">
          <mxGeometry y="33.142857142857146" width="281" height="33" as="geometry" />
        </mxCell>
        <mxCell id="djiI9uQT8ii3HJ8XC2zc-38" value="-уровень:int" style="text;strokeColor=none;fillColor=none;align=left;verticalAlign=top;spacingLeft=4;spacingRight=4;overflow=hidden;rotatable=0;points=[[0,0.5],[1,0.5]];portConstraint=eastwest;labelBorderColor=none;fontSize=20;fontFamily=Times New Roman;" vertex="1" parent="djiI9uQT8ii3HJ8XC2zc-36">
          <mxGeometry y="66.14285714285714" width="281" height="33" as="geometry" />
        </mxCell>
        <mxCell id="djiI9uQT8ii3HJ8XC2zc-39" value="-линии:int" style="text;strokeColor=none;fillColor=none;align=left;verticalAlign=top;spacingLeft=4;spacingRight=4;overflow=hidden;rotatable=0;points=[[0,0.5],[1,0.5]];portConstraint=eastwest;labelBorderColor=none;fontSize=20;fontFamily=Times New Roman;" vertex="1" parent="djiI9uQT8ii3HJ8XC2zc-36">
          <mxGeometry y="99.14285714285714" width="281" height="33" as="geometry" />
        </mxCell>
        <mxCell id="djiI9uQT8ii3HJ8XC2zc-40" style="line;strokeWidth=1;fillColor=none;align=left;verticalAlign=middle;spacingTop=-1;spacingLeft=3;spacingRight=3;rotatable=0;labelPosition=right;points=[];portConstraint=eastwest;strokeColor=inherit;labelBorderColor=none;fontSize=20;fontFamily=Times New Roman;" vertex="1" parent="djiI9uQT8ii3HJ8XC2zc-36">
          <mxGeometry y="132.14285714285714" width="281" height="8" as="geometry" />
        </mxCell>
        <mxCell id="djiI9uQT8ii3HJ8XC2zc-41" value="+сброс() : : void" style="text;strokeColor=none;fillColor=none;align=left;verticalAlign=top;spacingLeft=4;spacingRight=4;overflow=hidden;rotatable=0;points=[[0,0.5],[1,0.5]];portConstraint=eastwest;labelBorderColor=none;fontSize=20;fontFamily=Times New Roman;" vertex="1" parent="djiI9uQT8ii3HJ8XC2zc-36">
          <mxGeometry y="140.14285714285714" width="281" height="33" as="geometry" />
        </mxCell>
        <mxCell id="djiI9uQT8ii3HJ8XC2zc-42" value="+добавитьЛинии(n:int) : : void" style="text;strokeColor=none;fillColor=none;align=left;verticalAlign=top;spacingLeft=4;spacingRight=4;overflow=hidden;rotatable=0;points=[[0,0.5],[1,0.5]];portConstraint=eastwest;labelBorderColor=none;fontSize=20;fontFamily=Times New Roman;" vertex="1" parent="djiI9uQT8ii3HJ8XC2zc-36">
          <mxGeometry y="173.14285714285714" width="281" height="33" as="geometry" />
        </mxCell>
        <mxCell id="djiI9uQT8ii3HJ8XC2zc-43" value="+получитьОчки() : : int" style="text;strokeColor=none;fillColor=none;align=left;verticalAlign=top;spacingLeft=4;spacingRight=4;overflow=hidden;rotatable=0;points=[[0,0.5],[1,0.5]];portConstraint=eastwest;labelBorderColor=none;fontSize=20;fontFamily=Times New Roman;" vertex="1" parent="djiI9uQT8ii3HJ8XC2zc-36">
          <mxGeometry y="206.14285714285714" width="281" height="33" as="geometry" />
        </mxCell>
        <mxCell id="djiI9uQT8ii3HJ8XC2zc-44" value="&lt;&lt;abstract&gt;&gt;&#xa;СостояниеИгры" style="swimlane;fontStyle=1;align=center;verticalAlign=top;childLayout=stackLayout;horizontal=1;startSize=53.5;horizontalStack=0;resizeParent=1;resizeParentMax=0;resizeLast=0;collapsible=0;marginBottom=0;labelBorderColor=none;fontSize=20;fontFamily=Times New Roman;" vertex="1" parent="1">
          <mxGeometry x="770" y="740" width="317" height="205.5" as="geometry" />
        </mxCell>
        <mxCell id="djiI9uQT8ii3HJ8XC2zc-45" style="line;strokeWidth=1;fillColor=none;align=left;verticalAlign=middle;spacingTop=-1;spacingLeft=3;spacingRight=3;rotatable=0;labelPosition=right;points=[];portConstraint=eastwest;strokeColor=inherit;labelBorderColor=none;fontSize=20;fontFamily=Times New Roman;" vertex="1" parent="djiI9uQT8ii3HJ8XC2zc-44">
          <mxGeometry y="53.5" width="317" height="8" as="geometry" />
        </mxCell>
        <mxCell id="djiI9uQT8ii3HJ8XC2zc-46" value="+войти(игра:Игра) : : void" style="text;strokeColor=none;fillColor=none;align=left;verticalAlign=top;spacingLeft=4;spacingRight=4;overflow=hidden;rotatable=0;points=[[0,0.5],[1,0.5]];portConstraint=eastwest;labelBorderColor=none;fontSize=20;fontFamily=Times New Roman;" vertex="1" parent="djiI9uQT8ii3HJ8XC2zc-44">
          <mxGeometry y="61.5" width="317" height="36" as="geometry" />
        </mxCell>
        <mxCell id="djiI9uQT8ii3HJ8XC2zc-47" value="+обновить(игра:Игра) : : void" style="text;strokeColor=none;fillColor=none;align=left;verticalAlign=top;spacingLeft=4;spacingRight=4;overflow=hidden;rotatable=0;points=[[0,0.5],[1,0.5]];portConstraint=eastwest;labelBorderColor=none;fontSize=20;fontFamily=Times New Roman;" vertex="1" parent="djiI9uQT8ii3HJ8XC2zc-44">
          <mxGeometry y="97.5" width="317" height="36" as="geometry" />
        </mxCell>
        <mxCell id="djiI9uQT8ii3HJ8XC2zc-48" value="+отрисовать(игра:Игра) : : void" style="text;strokeColor=none;fillColor=none;align=left;verticalAlign=top;spacingLeft=4;spacingRight=4;overflow=hidden;rotatable=0;points=[[0,0.5],[1,0.5]];portConstraint=eastwest;labelBorderColor=none;fontSize=20;fontFamily=Times New Roman;" vertex="1" parent="djiI9uQT8ii3HJ8XC2zc-44">
          <mxGeometry y="133.5" width="317" height="36" as="geometry" />
        </mxCell>
        <mxCell id="djiI9uQT8ii3HJ8XC2zc-49" value="+выйти(игра:Игра) : : void" style="text;strokeColor=none;fillColor=none;align=left;verticalAlign=top;spacingLeft=4;spacingRight=4;overflow=hidden;rotatable=0;points=[[0,0.5],[1,0.5]];portConstraint=eastwest;labelBorderColor=none;fontSize=20;fontFamily=Times New Roman;" vertex="1" parent="djiI9uQT8ii3HJ8XC2zc-44">
          <mxGeometry y="169.5" width="317" height="36" as="geometry" />
        </mxCell>
        <mxCell id="djiI9uQT8ii3HJ8XC2zc-50" value="ИграИдёт" style="swimlane;fontStyle=1;align=center;verticalAlign=top;childLayout=stackLayout;horizontal=1;startSize=34.54545454545455;horizontalStack=0;resizeParent=1;resizeParentMax=0;resizeLast=0;collapsible=0;marginBottom=0;labelBorderColor=none;fontSize=20;fontFamily=Times New Roman;" vertex="1" parent="1">
          <mxGeometry x="680" y="986" width="294" height="182.54545454545456" as="geometry" />
        </mxCell>
        <mxCell id="djiI9uQT8ii3HJ8XC2zc-51" style="line;strokeWidth=1;fillColor=none;align=left;verticalAlign=middle;spacingTop=-1;spacingLeft=3;spacingRight=3;rotatable=0;labelPosition=right;points=[];portConstraint=eastwest;strokeColor=inherit;labelBorderColor=none;fontSize=20;fontFamily=Times New Roman;" vertex="1" parent="djiI9uQT8ii3HJ8XC2zc-50">
          <mxGeometry y="34.54545454545455" width="294" height="8" as="geometry" />
        </mxCell>
        <mxCell id="djiI9uQT8ii3HJ8XC2zc-52" value="+войти(игра:Игра) : : void" style="text;strokeColor=none;fillColor=none;align=left;verticalAlign=top;spacingLeft=4;spacingRight=4;overflow=hidden;rotatable=0;points=[[0,0.5],[1,0.5]];portConstraint=eastwest;labelBorderColor=none;fontSize=20;fontFamily=Times New Roman;" vertex="1" parent="djiI9uQT8ii3HJ8XC2zc-50">
          <mxGeometry y="42.54545454545455" width="294" height="35" as="geometry" />
        </mxCell>
        <mxCell id="djiI9uQT8ii3HJ8XC2zc-53" value="+обновить(игра:Игра) : : void" style="text;strokeColor=none;fillColor=none;align=left;verticalAlign=top;spacingLeft=4;spacingRight=4;overflow=hidden;rotatable=0;points=[[0,0.5],[1,0.5]];portConstraint=eastwest;labelBorderColor=none;fontSize=20;fontFamily=Times New Roman;" vertex="1" parent="djiI9uQT8ii3HJ8XC2zc-50">
          <mxGeometry y="77.54545454545455" width="294" height="35" as="geometry" />
        </mxCell>
        <mxCell id="djiI9uQT8ii3HJ8XC2zc-54" value="+отрисовать(игра:Игра) : : void" style="text;strokeColor=none;fillColor=none;align=left;verticalAlign=top;spacingLeft=4;spacingRight=4;overflow=hidden;rotatable=0;points=[[0,0.5],[1,0.5]];portConstraint=eastwest;labelBorderColor=none;fontSize=20;fontFamily=Times New Roman;" vertex="1" parent="djiI9uQT8ii3HJ8XC2zc-50">
          <mxGeometry y="112.54545454545455" width="294" height="35" as="geometry" />
        </mxCell>
        <mxCell id="djiI9uQT8ii3HJ8XC2zc-55" value="+выйти(игра:Игра) : : void" style="text;strokeColor=none;fillColor=none;align=left;verticalAlign=top;spacingLeft=4;spacingRight=4;overflow=hidden;rotatable=0;points=[[0,0.5],[1,0.5]];portConstraint=eastwest;labelBorderColor=none;fontSize=20;fontFamily=Times New Roman;" vertex="1" parent="djiI9uQT8ii3HJ8XC2zc-50">
          <mxGeometry y="147.54545454545456" width="294" height="35" as="geometry" />
        </mxCell>
        <mxCell id="djiI9uQT8ii3HJ8XC2zc-56" value="КонецИгры" style="swimlane;fontStyle=1;align=center;verticalAlign=top;childLayout=stackLayout;horizontal=1;startSize=34.54545454545455;horizontalStack=0;resizeParent=1;resizeParentMax=0;resizeLast=0;collapsible=0;marginBottom=0;labelBorderColor=none;fontSize=20;fontFamily=Times New Roman;" vertex="1" parent="1">
          <mxGeometry x="1010" y="986" width="300" height="182.54545454545456" as="geometry" />
        </mxCell>
        <mxCell id="djiI9uQT8ii3HJ8XC2zc-57" style="line;strokeWidth=1;fillColor=none;align=left;verticalAlign=middle;spacingTop=-1;spacingLeft=3;spacingRight=3;rotatable=0;labelPosition=right;points=[];portConstraint=eastwest;strokeColor=inherit;labelBorderColor=none;fontSize=20;fontFamily=Times New Roman;" vertex="1" parent="djiI9uQT8ii3HJ8XC2zc-56">
          <mxGeometry y="34.54545454545455" width="300" height="8" as="geometry" />
        </mxCell>
        <mxCell id="djiI9uQT8ii3HJ8XC2zc-58" value="+войти(игра:Игра) : : void" style="text;strokeColor=none;fillColor=none;align=left;verticalAlign=top;spacingLeft=4;spacingRight=4;overflow=hidden;rotatable=0;points=[[0,0.5],[1,0.5]];portConstraint=eastwest;labelBorderColor=none;fontSize=20;fontFamily=Times New Roman;" vertex="1" parent="djiI9uQT8ii3HJ8XC2zc-56">
          <mxGeometry y="42.54545454545455" width="300" height="35" as="geometry" />
        </mxCell>
        <mxCell id="djiI9uQT8ii3HJ8XC2zc-59" value="+обновить(игра:Игра) : : void" style="text;strokeColor=none;fillColor=none;align=left;verticalAlign=top;spacingLeft=4;spacingRight=4;overflow=hidden;rotatable=0;points=[[0,0.5],[1,0.5]];portConstraint=eastwest;labelBorderColor=none;fontSize=20;fontFamily=Times New Roman;" vertex="1" parent="djiI9uQT8ii3HJ8XC2zc-56">
          <mxGeometry y="77.54545454545455" width="300" height="35" as="geometry" />
        </mxCell>
        <mxCell id="djiI9uQT8ii3HJ8XC2zc-60" value="+отрисовать(игра:Игра) : : void" style="text;strokeColor=none;fillColor=none;align=left;verticalAlign=top;spacingLeft=4;spacingRight=4;overflow=hidden;rotatable=0;points=[[0,0.5],[1,0.5]];portConstraint=eastwest;labelBorderColor=none;fontSize=20;fontFamily=Times New Roman;" vertex="1" parent="djiI9uQT8ii3HJ8XC2zc-56">
          <mxGeometry y="112.54545454545455" width="300" height="35" as="geometry" />
        </mxCell>
        <mxCell id="djiI9uQT8ii3HJ8XC2zc-61" value="+выйти(игра:Игра) : : void" style="text;strokeColor=none;fillColor=none;align=left;verticalAlign=top;spacingLeft=4;spacingRight=4;overflow=hidden;rotatable=0;points=[[0,0.5],[1,0.5]];portConstraint=eastwest;labelBorderColor=none;fontSize=20;fontFamily=Times New Roman;" vertex="1" parent="djiI9uQT8ii3HJ8XC2zc-56">
          <mxGeometry y="147.54545454545456" width="300" height="35" as="geometry" />
        </mxCell>
        <mxCell id="djiI9uQT8ii3HJ8XC2zc-62" value="&lt;&lt;abstract&gt;&gt;&#xa;Фигура" style="swimlane;fontStyle=1;align=center;verticalAlign=top;childLayout=stackLayout;horizontal=1;startSize=53.53846153846154;horizontalStack=0;resizeParent=1;resizeParentMax=0;resizeLast=0;collapsible=0;marginBottom=0;labelBorderColor=none;fontSize=20;fontFamily=Times New Roman;" vertex="1" parent="1">
          <mxGeometry x="1341" y="1174" width="313" height="241.53846153846155" as="geometry" />
        </mxCell>
        <mxCell id="djiI9uQT8ii3HJ8XC2zc-63" value="-клетки: List&amp;lt;Точка&amp;gt;" style="text;strokeColor=none;fillColor=none;align=left;verticalAlign=top;spacingLeft=4;spacingRight=4;overflow=hidden;rotatable=0;points=[[0,0.5],[1,0.5]];portConstraint=eastwest;labelBorderColor=none;fontSize=20;fontFamily=Times New Roman;" vertex="1" parent="djiI9uQT8ii3HJ8XC2zc-62">
          <mxGeometry y="53.53846153846154" width="313" height="36" as="geometry" />
        </mxCell>
        <mxCell id="djiI9uQT8ii3HJ8XC2zc-64" style="line;strokeWidth=1;fillColor=none;align=left;verticalAlign=middle;spacingTop=-1;spacingLeft=3;spacingRight=3;rotatable=0;labelPosition=right;points=[];portConstraint=eastwest;strokeColor=inherit;labelBorderColor=none;fontSize=20;fontFamily=Times New Roman;" vertex="1" parent="djiI9uQT8ii3HJ8XC2zc-62">
          <mxGeometry y="89.53846153846155" width="313" height="8" as="geometry" />
        </mxCell>
        <mxCell id="djiI9uQT8ii3HJ8XC2zc-65" value="+получитьКлетки() : : List&amp;lt;Точка&amp;gt;" style="text;strokeColor=none;fillColor=none;align=left;verticalAlign=top;spacingLeft=4;spacingRight=4;overflow=hidden;rotatable=0;points=[[0,0.5],[1,0.5]];portConstraint=eastwest;labelBorderColor=none;fontSize=20;fontFamily=Times New Roman;" vertex="1" parent="djiI9uQT8ii3HJ8XC2zc-62">
          <mxGeometry y="97.53846153846155" width="313" height="36" as="geometry" />
        </mxCell>
        <mxCell id="djiI9uQT8ii3HJ8XC2zc-66" value="+сдвинуть(dx:int, dy:int) : : void" style="text;strokeColor=none;fillColor=none;align=left;verticalAlign=top;spacingLeft=4;spacingRight=4;overflow=hidden;rotatable=0;points=[[0,0.5],[1,0.5]];portConstraint=eastwest;labelBorderColor=none;fontSize=20;fontFamily=Times New Roman;" vertex="1" parent="djiI9uQT8ii3HJ8XC2zc-62">
          <mxGeometry y="133.53846153846155" width="313" height="36" as="geometry" />
        </mxCell>
        <mxCell id="djiI9uQT8ii3HJ8XC2zc-67" value="+повернутьВправо() : : void" style="text;strokeColor=none;fillColor=none;align=left;verticalAlign=top;spacingLeft=4;spacingRight=4;overflow=hidden;rotatable=0;points=[[0,0.5],[1,0.5]];portConstraint=eastwest;labelBorderColor=none;fontSize=20;fontFamily=Times New Roman;" vertex="1" parent="djiI9uQT8ii3HJ8XC2zc-62">
          <mxGeometry y="169.53846153846155" width="313" height="36" as="geometry" />
        </mxCell>
        <mxCell id="djiI9uQT8ii3HJ8XC2zc-68" value="+повернутьВлево() : : void" style="text;strokeColor=none;fillColor=none;align=left;verticalAlign=top;spacingLeft=4;spacingRight=4;overflow=hidden;rotatable=0;points=[[0,0.5],[1,0.5]];portConstraint=eastwest;labelBorderColor=none;fontSize=20;fontFamily=Times New Roman;" vertex="1" parent="djiI9uQT8ii3HJ8XC2zc-62">
          <mxGeometry y="205.53846153846155" width="313" height="36" as="geometry" />
        </mxCell>
        <mxCell id="djiI9uQT8ii3HJ8XC2zc-69" value="ФигураI" style="swimlane;fontStyle=1;align=center;verticalAlign=top;childLayout=stackLayout;horizontal=1;startSize=40.57142857142857;horizontalStack=0;resizeParent=1;resizeParentMax=0;resizeLast=0;collapsible=0;marginBottom=0;labelBorderColor=none;fontSize=20;fontFamily=Times New Roman;" vertex="1" parent="1">
          <mxGeometry x="827" y="1464" width="306" height="130.57142857142856" as="geometry" />
        </mxCell>
        <mxCell id="djiI9uQT8ii3HJ8XC2zc-70" style="line;strokeWidth=1;fillColor=none;align=left;verticalAlign=middle;spacingTop=-1;spacingLeft=3;spacingRight=3;rotatable=0;labelPosition=right;points=[];portConstraint=eastwest;strokeColor=inherit;labelBorderColor=none;fontSize=20;fontFamily=Times New Roman;" vertex="1" parent="djiI9uQT8ii3HJ8XC2zc-69">
          <mxGeometry y="40.57142857142857" width="306" height="8" as="geometry" />
        </mxCell>
        <mxCell id="djiI9uQT8ii3HJ8XC2zc-71" value="+получитьКлетки() : : List&amp;lt;Точка&amp;gt;" style="text;strokeColor=none;fillColor=none;align=left;verticalAlign=top;spacingLeft=4;spacingRight=4;overflow=hidden;rotatable=0;points=[[0,0.5],[1,0.5]];portConstraint=eastwest;labelBorderColor=none;fontSize=20;fontFamily=Times New Roman;" vertex="1" parent="djiI9uQT8ii3HJ8XC2zc-69">
          <mxGeometry y="48.57142857142857" width="306" height="41" as="geometry" />
        </mxCell>
        <mxCell id="djiI9uQT8ii3HJ8XC2zc-72" value="+копия() : : Фигура" style="text;strokeColor=none;fillColor=none;align=left;verticalAlign=top;spacingLeft=4;spacingRight=4;overflow=hidden;rotatable=0;points=[[0,0.5],[1,0.5]];portConstraint=eastwest;labelBorderColor=none;fontSize=20;fontFamily=Times New Roman;" vertex="1" parent="djiI9uQT8ii3HJ8XC2zc-69">
          <mxGeometry y="89.57142857142857" width="306" height="41" as="geometry" />
        </mxCell>
        <mxCell id="djiI9uQT8ii3HJ8XC2zc-73" value="ФигураO" style="swimlane;fontStyle=1;align=center;verticalAlign=top;childLayout=stackLayout;horizontal=1;startSize=40.57142857142857;horizontalStack=0;resizeParent=1;resizeParentMax=0;resizeLast=0;collapsible=0;marginBottom=0;labelBorderColor=none;fontSize=20;fontFamily=Times New Roman;" vertex="1" parent="1">
          <mxGeometry x="1183" y="1464" width="309" height="130.57142857142856" as="geometry" />
        </mxCell>
        <mxCell id="djiI9uQT8ii3HJ8XC2zc-74" style="line;strokeWidth=1;fillColor=none;align=left;verticalAlign=middle;spacingTop=-1;spacingLeft=3;spacingRight=3;rotatable=0;labelPosition=right;points=[];portConstraint=eastwest;strokeColor=inherit;labelBorderColor=none;fontSize=20;fontFamily=Times New Roman;" vertex="1" parent="djiI9uQT8ii3HJ8XC2zc-73">
          <mxGeometry y="40.57142857142857" width="309" height="8" as="geometry" />
        </mxCell>
        <mxCell id="djiI9uQT8ii3HJ8XC2zc-75" value="+получитьКлетки() : : List&amp;lt;Точка&amp;gt;" style="text;strokeColor=none;fillColor=none;align=left;verticalAlign=top;spacingLeft=4;spacingRight=4;overflow=hidden;rotatable=0;points=[[0,0.5],[1,0.5]];portConstraint=eastwest;labelBorderColor=none;fontSize=20;fontFamily=Times New Roman;" vertex="1" parent="djiI9uQT8ii3HJ8XC2zc-73">
          <mxGeometry y="48.57142857142857" width="309" height="41" as="geometry" />
        </mxCell>
        <mxCell id="djiI9uQT8ii3HJ8XC2zc-76" value="+копия() : : Фигура" style="text;strokeColor=none;fillColor=none;align=left;verticalAlign=top;spacingLeft=4;spacingRight=4;overflow=hidden;rotatable=0;points=[[0,0.5],[1,0.5]];portConstraint=eastwest;labelBorderColor=none;fontSize=20;fontFamily=Times New Roman;" vertex="1" parent="djiI9uQT8ii3HJ8XC2zc-73">
          <mxGeometry y="89.57142857142857" width="309" height="41" as="geometry" />
        </mxCell>
        <mxCell id="djiI9uQT8ii3HJ8XC2zc-77" value="ФигураT" style="swimlane;fontStyle=1;align=center;verticalAlign=top;childLayout=stackLayout;horizontal=1;startSize=40.57142857142857;horizontalStack=0;resizeParent=1;resizeParentMax=0;resizeLast=0;collapsible=0;marginBottom=0;labelBorderColor=none;fontSize=20;fontFamily=Times New Roman;" vertex="1" parent="1">
          <mxGeometry x="1543" y="1464" width="309" height="130.57142857142856" as="geometry" />
        </mxCell>
        <mxCell id="djiI9uQT8ii3HJ8XC2zc-78" style="line;strokeWidth=1;fillColor=none;align=left;verticalAlign=middle;spacingTop=-1;spacingLeft=3;spacingRight=3;rotatable=0;labelPosition=right;points=[];portConstraint=eastwest;strokeColor=inherit;labelBorderColor=none;fontSize=20;fontFamily=Times New Roman;" vertex="1" parent="djiI9uQT8ii3HJ8XC2zc-77">
          <mxGeometry y="40.57142857142857" width="309" height="8" as="geometry" />
        </mxCell>
        <mxCell id="djiI9uQT8ii3HJ8XC2zc-79" value="+получитьКлетки() : : List&amp;lt;Точка&amp;gt;" style="text;strokeColor=none;fillColor=none;align=left;verticalAlign=top;spacingLeft=4;spacingRight=4;overflow=hidden;rotatable=0;points=[[0,0.5],[1,0.5]];portConstraint=eastwest;labelBorderColor=none;fontSize=20;fontFamily=Times New Roman;" vertex="1" parent="djiI9uQT8ii3HJ8XC2zc-77">
          <mxGeometry y="48.57142857142857" width="309" height="41" as="geometry" />
        </mxCell>
        <mxCell id="djiI9uQT8ii3HJ8XC2zc-80" value="+копия() : : Фигура" style="text;strokeColor=none;fillColor=none;align=left;verticalAlign=top;spacingLeft=4;spacingRight=4;overflow=hidden;rotatable=0;points=[[0,0.5],[1,0.5]];portConstraint=eastwest;labelBorderColor=none;fontSize=20;fontFamily=Times New Roman;" vertex="1" parent="djiI9uQT8ii3HJ8XC2zc-77">
          <mxGeometry y="89.57142857142857" width="309" height="41" as="geometry" />
        </mxCell>
        <mxCell id="djiI9uQT8ii3HJ8XC2zc-81" value="Точка" style="swimlane;fontStyle=1;align=center;verticalAlign=top;childLayout=stackLayout;horizontal=1;startSize=44.8;horizontalStack=0;resizeParent=1;resizeParentMax=0;resizeLast=0;collapsible=0;marginBottom=0;labelBorderColor=none;fontSize=20;fontFamily=Times New Roman;" vertex="1" parent="1">
          <mxGeometry x="1901" y="1479" width="141" height="111.8" as="geometry" />
        </mxCell>
        <mxCell id="djiI9uQT8ii3HJ8XC2zc-82" value="+x:int; +y:int" style="text;strokeColor=none;fillColor=none;align=left;verticalAlign=top;spacingLeft=4;spacingRight=4;overflow=hidden;rotatable=0;points=[[0,0.5],[1,0.5]];portConstraint=eastwest;labelBorderColor=none;fontSize=20;fontFamily=Times New Roman;" vertex="1" parent="djiI9uQT8ii3HJ8XC2zc-81">
          <mxGeometry y="44.8" width="141" height="45" as="geometry" />
        </mxCell>
        <mxCell id="djiI9uQT8ii3HJ8XC2zc-83" style="line;strokeWidth=1;fillColor=none;align=left;verticalAlign=middle;spacingTop=-1;spacingLeft=3;spacingRight=3;rotatable=0;labelPosition=right;points=[];portConstraint=eastwest;strokeColor=inherit;labelBorderColor=none;fontSize=20;fontFamily=Times New Roman;" vertex="1" parent="djiI9uQT8ii3HJ8XC2zc-81">
          <mxGeometry y="89.8" width="141" height="22" as="geometry" />
        </mxCell>
        <mxCell id="djiI9uQT8ii3HJ8XC2zc-84" value="&lt;&lt;interface&gt;&gt;&#xa;Отрисовщик" style="swimlane;fontStyle=1;align=center;verticalAlign=top;childLayout=stackLayout;horizontal=1;startSize=51;horizontalStack=0;resizeParent=1;resizeParentMax=0;resizeLast=0;collapsible=0;marginBottom=0;labelBorderColor=none;fontSize=20;fontFamily=Times New Roman;" vertex="1" parent="1">
          <mxGeometry x="1470" y="857.5" width="481" height="229" as="geometry" />
        </mxCell>
        <mxCell id="djiI9uQT8ii3HJ8XC2zc-85" style="line;strokeWidth=1;fillColor=none;align=left;verticalAlign=middle;spacingTop=-1;spacingLeft=3;spacingRight=3;rotatable=0;labelPosition=right;points=[];portConstraint=eastwest;strokeColor=inherit;labelBorderColor=none;fontSize=20;fontFamily=Times New Roman;" vertex="1" parent="djiI9uQT8ii3HJ8XC2zc-84">
          <mxGeometry y="51" width="481" height="8" as="geometry" />
        </mxCell>
        <mxCell id="djiI9uQT8ii3HJ8XC2zc-86" value="+инициализировать(шир:int, выс:int) : : void" style="text;strokeColor=none;fillColor=none;align=left;verticalAlign=top;spacingLeft=4;spacingRight=4;overflow=hidden;rotatable=0;points=[[0,0.5],[1,0.5]];portConstraint=eastwest;labelBorderColor=none;fontSize=20;fontFamily=Times New Roman;" vertex="1" parent="djiI9uQT8ii3HJ8XC2zc-84">
          <mxGeometry y="59" width="481" height="34" as="geometry" />
        </mxCell>
        <mxCell id="djiI9uQT8ii3HJ8XC2zc-87" value="+нарисоватьПоле(поле:Поле) : : void" style="text;strokeColor=none;fillColor=none;align=left;verticalAlign=top;spacingLeft=4;spacingRight=4;overflow=hidden;rotatable=0;points=[[0,0.5],[1,0.5]];portConstraint=eastwest;labelBorderColor=none;fontSize=20;fontFamily=Times New Roman;" vertex="1" parent="djiI9uQT8ii3HJ8XC2zc-84">
          <mxGeometry y="93" width="481" height="34" as="geometry" />
        </mxCell>
        <mxCell id="djiI9uQT8ii3HJ8XC2zc-88" value="+нарисоватьФигуру(ф:Фигура, x:int, y:int) : : void" style="text;strokeColor=none;fillColor=none;align=left;verticalAlign=top;spacingLeft=4;spacingRight=4;overflow=hidden;rotatable=0;points=[[0,0.5],[1,0.5]];portConstraint=eastwest;labelBorderColor=none;fontSize=20;fontFamily=Times New Roman;" vertex="1" parent="djiI9uQT8ii3HJ8XC2zc-84">
          <mxGeometry y="127" width="481" height="34" as="geometry" />
        </mxCell>
        <mxCell id="djiI9uQT8ii3HJ8XC2zc-89" value="+показатьHUD(очки:int, уровень:int, линии:int) : : void" style="text;strokeColor=none;fillColor=none;align=left;verticalAlign=top;spacingLeft=4;spacingRight=4;overflow=hidden;rotatable=0;points=[[0,0.5],[1,0.5]];portConstraint=eastwest;labelBorderColor=none;fontSize=20;fontFamily=Times New Roman;" vertex="1" parent="djiI9uQT8ii3HJ8XC2zc-84">
          <mxGeometry y="161" width="481" height="34" as="geometry" />
        </mxCell>
        <mxCell id="djiI9uQT8ii3HJ8XC2zc-90" value="+показать() : : void" style="text;strokeColor=none;fillColor=none;align=left;verticalAlign=top;spacingLeft=4;spacingRight=4;overflow=hidden;rotatable=0;points=[[0,0.5],[1,0.5]];portConstraint=eastwest;labelBorderColor=none;fontSize=20;fontFamily=Times New Roman;" vertex="1" parent="djiI9uQT8ii3HJ8XC2zc-84">
          <mxGeometry y="195" width="481" height="34" as="geometry" />
        </mxCell>
        <mxCell id="djiI9uQT8ii3HJ8XC2zc-91" value="&lt;&lt;interface&gt;&gt;&#xa;Ввод" style="swimlane;fontStyle=1;align=center;verticalAlign=top;childLayout=stackLayout;horizontal=1;startSize=51;horizontalStack=0;resizeParent=1;resizeParentMax=0;resizeLast=0;collapsible=0;marginBottom=0;labelBorderColor=none;fontSize=20;fontFamily=Times New Roman;" vertex="1" parent="1">
          <mxGeometry x="1775" y="560" width="282" height="229" as="geometry" />
        </mxCell>
        <mxCell id="djiI9uQT8ii3HJ8XC2zc-92" style="line;strokeWidth=1;fillColor=none;align=left;verticalAlign=middle;spacingTop=-1;spacingLeft=3;spacingRight=3;rotatable=0;labelPosition=right;points=[];portConstraint=eastwest;strokeColor=inherit;labelBorderColor=none;fontSize=20;fontFamily=Times New Roman;" vertex="1" parent="djiI9uQT8ii3HJ8XC2zc-91">
          <mxGeometry y="51" width="282" height="8" as="geometry" />
        </mxCell>
        <mxCell id="djiI9uQT8ii3HJ8XC2zc-93" value="+опрос() : : void" style="text;strokeColor=none;fillColor=none;align=left;verticalAlign=top;spacingLeft=4;spacingRight=4;overflow=hidden;rotatable=0;points=[[0,0.5],[1,0.5]];portConstraint=eastwest;labelBorderColor=none;fontSize=20;fontFamily=Times New Roman;" vertex="1" parent="djiI9uQT8ii3HJ8XC2zc-91">
          <mxGeometry y="59" width="282" height="34" as="geometry" />
        </mxCell>
        <mxCell id="djiI9uQT8ii3HJ8XC2zc-94" value="+нажатоВлево() : : boolean" style="text;strokeColor=none;fillColor=none;align=left;verticalAlign=top;spacingLeft=4;spacingRight=4;overflow=hidden;rotatable=0;points=[[0,0.5],[1,0.5]];portConstraint=eastwest;labelBorderColor=none;fontSize=20;fontFamily=Times New Roman;" vertex="1" parent="djiI9uQT8ii3HJ8XC2zc-91">
          <mxGeometry y="93" width="282" height="34" as="geometry" />
        </mxCell>
        <mxCell id="djiI9uQT8ii3HJ8XC2zc-95" value="+нажатоВправо() : : boolean" style="text;strokeColor=none;fillColor=none;align=left;verticalAlign=top;spacingLeft=4;spacingRight=4;overflow=hidden;rotatable=0;points=[[0,0.5],[1,0.5]];portConstraint=eastwest;labelBorderColor=none;fontSize=20;fontFamily=Times New Roman;" vertex="1" parent="djiI9uQT8ii3HJ8XC2zc-91">
          <mxGeometry y="127" width="282" height="34" as="geometry" />
        </mxCell>
        <mxCell id="djiI9uQT8ii3HJ8XC2zc-96" value="+нажатоВниз() : : boolean" style="text;strokeColor=none;fillColor=none;align=left;verticalAlign=top;spacingLeft=4;spacingRight=4;overflow=hidden;rotatable=0;points=[[0,0.5],[1,0.5]];portConstraint=eastwest;labelBorderColor=none;fontSize=20;fontFamily=Times New Roman;" vertex="1" parent="djiI9uQT8ii3HJ8XC2zc-91">
          <mxGeometry y="161" width="282" height="34" as="geometry" />
        </mxCell>
        <mxCell id="djiI9uQT8ii3HJ8XC2zc-97" value="+нажатоПоворот() : : boolean" style="text;strokeColor=none;fillColor=none;align=left;verticalAlign=top;spacingLeft=4;spacingRight=4;overflow=hidden;rotatable=0;points=[[0,0.5],[1,0.5]];portConstraint=eastwest;labelBorderColor=none;fontSize=20;fontFamily=Times New Roman;" vertex="1" parent="djiI9uQT8ii3HJ8XC2zc-91">
          <mxGeometry y="195" width="282" height="34" as="geometry" />
        </mxCell>
        <mxCell id="djiI9uQT8ii3HJ8XC2zc-98" value="&lt;&lt;interface&gt;&gt;&#xa;ГенераторФигур" style="swimlane;fontStyle=1;align=center;verticalAlign=top;childLayout=stackLayout;horizontal=1;startSize=62.25;horizontalStack=0;resizeParent=1;resizeParentMax=0;resizeLast=0;collapsible=0;marginBottom=0;labelBorderColor=none;fontSize=20;fontFamily=Times New Roman;" vertex="1" parent="1">
          <mxGeometry x="1790" y="360" width="271" height="154.25" as="geometry" />
        </mxCell>
        <mxCell id="djiI9uQT8ii3HJ8XC2zc-99" style="line;strokeWidth=1;fillColor=none;align=left;verticalAlign=middle;spacingTop=-1;spacingLeft=3;spacingRight=3;rotatable=0;labelPosition=right;points=[];portConstraint=eastwest;strokeColor=inherit;labelBorderColor=none;fontSize=20;fontFamily=Times New Roman;" vertex="1" parent="djiI9uQT8ii3HJ8XC2zc-98">
          <mxGeometry y="62.25" width="271" height="8" as="geometry" />
        </mxCell>
        <mxCell id="djiI9uQT8ii3HJ8XC2zc-100" value="+следующая() : : Фигура" style="text;strokeColor=none;fillColor=none;align=left;verticalAlign=top;spacingLeft=4;spacingRight=4;overflow=hidden;rotatable=0;points=[[0,0.5],[1,0.5]];portConstraint=eastwest;labelBorderColor=none;fontSize=20;fontFamily=Times New Roman;" vertex="1" parent="djiI9uQT8ii3HJ8XC2zc-98">
          <mxGeometry y="70.25" width="271" height="42" as="geometry" />
        </mxCell>
        <mxCell id="djiI9uQT8ii3HJ8XC2zc-101" value="+сброс() : : void" style="text;strokeColor=none;fillColor=none;align=left;verticalAlign=top;spacingLeft=4;spacingRight=4;overflow=hidden;rotatable=0;points=[[0,0.5],[1,0.5]];portConstraint=eastwest;labelBorderColor=none;fontSize=20;fontFamily=Times New Roman;" vertex="1" parent="djiI9uQT8ii3HJ8XC2zc-98">
          <mxGeometry y="112.25" width="271" height="42" as="geometry" />
        </mxCell>
        <mxCell id="djiI9uQT8ii3HJ8XC2zc-104" value="" style="curved=1;startArrow=block;startSize=16;startFill=0;endArrow=none;exitX=0;exitY=0.68;entryX=0.5;entryY=0;rounded=0;labelBorderColor=none;fontSize=20;fontFamily=Times New Roman;" edge="1" parent="1" source="djiI9uQT8ii3HJ8XC2zc-62" target="djiI9uQT8ii3HJ8XC2zc-69">
          <mxGeometry relative="1" as="geometry">
            <Array as="points">
              <mxPoint x="980" y="1439" />
            </Array>
          </mxGeometry>
        </mxCell>
        <mxCell id="djiI9uQT8ii3HJ8XC2zc-105" value="" style="curved=1;startArrow=block;startSize=16;startFill=0;endArrow=none;exitX=0.08;exitY=1;entryX=0.5;entryY=0;rounded=0;labelBorderColor=none;fontSize=20;fontFamily=Times New Roman;" edge="1" parent="1" source="djiI9uQT8ii3HJ8XC2zc-62" target="djiI9uQT8ii3HJ8XC2zc-73">
          <mxGeometry relative="1" as="geometry">
            <Array as="points">
              <mxPoint x="1338" y="1439" />
            </Array>
          </mxGeometry>
        </mxCell>
        <mxCell id="djiI9uQT8ii3HJ8XC2zc-106" value="" style="curved=1;startArrow=block;startSize=16;startFill=0;endArrow=none;exitX=1;exitY=0.98;entryX=0.5;entryY=0;rounded=0;labelBorderColor=none;fontSize=20;fontFamily=Times New Roman;" edge="1" parent="1" source="djiI9uQT8ii3HJ8XC2zc-62" target="djiI9uQT8ii3HJ8XC2zc-77">
          <mxGeometry relative="1" as="geometry">
            <Array as="points">
              <mxPoint x="1697" y="1439" />
            </Array>
          </mxGeometry>
        </mxCell>
        <mxCell id="djiI9uQT8ii3HJ8XC2zc-109" value="" style="curved=1;startArrow=diamondThin;startSize=14;startFill=0;endArrow=none;exitX=1;exitY=0.7;entryX=0.5;entryY=0;rounded=0;labelBorderColor=none;fontSize=20;fontFamily=Times New Roman;" edge="1" parent="1" source="djiI9uQT8ii3HJ8XC2zc-62" target="djiI9uQT8ii3HJ8XC2zc-81">
          <mxGeometry relative="1" as="geometry">
            <Array as="points">
              <mxPoint x="1972" y="1439" />
            </Array>
          </mxGeometry>
        </mxCell>
        <mxCell id="djiI9uQT8ii3HJ8XC2zc-118" value="" style="endArrow=diamondThin;endFill=0;endSize=24;html=1;rounded=0;exitX=0;exitY=0.5;exitDx=0;exitDy=0;entryX=1;entryY=0.5;entryDx=0;entryDy=0;" edge="1" parent="1" source="djiI9uQT8ii3HJ8XC2zc-100" target="djiI9uQT8ii3HJ8XC2zc-6">
          <mxGeometry width="160" relative="1" as="geometry">
            <mxPoint x="1480" y="730" as="sourcePoint" />
            <mxPoint x="1640" y="730" as="targetPoint" />
          </mxGeometry>
        </mxCell>
        <mxCell id="djiI9uQT8ii3HJ8XC2zc-119" value="" style="endArrow=diamondThin;endFill=0;endSize=24;html=1;rounded=0;exitX=-0.006;exitY=0.125;exitDx=0;exitDy=0;entryX=1;entryY=0.5;entryDx=0;entryDy=0;exitPerimeter=0;" edge="1" parent="1" source="djiI9uQT8ii3HJ8XC2zc-91" target="djiI9uQT8ii3HJ8XC2zc-11">
          <mxGeometry width="160" relative="1" as="geometry">
            <mxPoint x="1480" y="760" as="sourcePoint" />
            <mxPoint x="1640" y="760" as="targetPoint" />
          </mxGeometry>
        </mxCell>
        <mxCell id="djiI9uQT8ii3HJ8XC2zc-120" value="" style="endArrow=diamondThin;endFill=0;endSize=24;html=1;rounded=0;exitX=0.5;exitY=0;exitDx=0;exitDy=0;entryX=1;entryY=0.5;entryDx=0;entryDy=0;" edge="1" parent="1" source="djiI9uQT8ii3HJ8XC2zc-84" target="djiI9uQT8ii3HJ8XC2zc-17">
          <mxGeometry width="160" relative="1" as="geometry">
            <mxPoint x="1660" y="780" as="sourcePoint" />
            <mxPoint x="1820" y="780" as="targetPoint" />
            <Array as="points">
              <mxPoint x="1711" y="744" />
            </Array>
          </mxGeometry>
        </mxCell>
        <mxCell id="djiI9uQT8ii3HJ8XC2zc-121" value="" style="endArrow=diamondThin;endFill=0;endSize=24;html=1;rounded=0;exitX=0.5;exitY=0;exitDx=0;exitDy=0;entryX=0.483;entryY=1.211;entryDx=0;entryDy=0;entryPerimeter=0;" edge="1" parent="1" source="djiI9uQT8ii3HJ8XC2zc-62" target="djiI9uQT8ii3HJ8XC2zc-19">
          <mxGeometry width="160" relative="1" as="geometry">
            <mxPoint x="1480" y="1040" as="sourcePoint" />
            <mxPoint x="1640" y="1040" as="targetPoint" />
            <Array as="points">
              <mxPoint x="1498" y="1120" />
              <mxPoint x="1350" y="1120" />
            </Array>
          </mxGeometry>
        </mxCell>
        <mxCell id="djiI9uQT8ii3HJ8XC2zc-122" value="" style="endArrow=diamondThin;endFill=1;endSize=24;html=1;rounded=0;exitX=1.005;exitY=0.095;exitDx=0;exitDy=0;exitPerimeter=0;entryX=0.011;entryY=0.033;entryDx=0;entryDy=0;entryPerimeter=0;" edge="1" parent="1" source="djiI9uQT8ii3HJ8XC2zc-36" target="djiI9uQT8ii3HJ8XC2zc-2">
          <mxGeometry width="160" relative="1" as="geometry">
            <mxPoint x="870" y="780" as="sourcePoint" />
            <mxPoint x="1030" y="780" as="targetPoint" />
          </mxGeometry>
        </mxCell>
        <mxCell id="djiI9uQT8ii3HJ8XC2zc-123" value="" style="endArrow=diamondThin;endFill=1;endSize=24;html=1;rounded=0;exitX=0.5;exitY=0;exitDx=0;exitDy=0;entryX=0;entryY=0.5;entryDx=0;entryDy=0;" edge="1" parent="1" source="djiI9uQT8ii3HJ8XC2zc-44" target="djiI9uQT8ii3HJ8XC2zc-14">
          <mxGeometry width="160" relative="1" as="geometry">
            <mxPoint x="980" y="680" as="sourcePoint" />
            <mxPoint x="1140" y="680" as="targetPoint" />
            <Array as="points">
              <mxPoint x="930" y="660" />
            </Array>
          </mxGeometry>
        </mxCell>
        <mxCell id="djiI9uQT8ii3HJ8XC2zc-124" value="" style="endArrow=diamondThin;endFill=0;endSize=24;html=1;rounded=0;exitX=0.5;exitY=0;exitDx=0;exitDy=0;entryX=1;entryY=0.5;entryDx=0;entryDy=0;" edge="1" parent="1" source="djiI9uQT8ii3HJ8XC2zc-56" target="djiI9uQT8ii3HJ8XC2zc-47">
          <mxGeometry width="160" relative="1" as="geometry">
            <mxPoint x="1110" y="1040" as="sourcePoint" />
            <mxPoint x="1270" y="1040" as="targetPoint" />
            <Array as="points">
              <mxPoint x="1160" y="855" />
            </Array>
          </mxGeometry>
        </mxCell>
        <mxCell id="djiI9uQT8ii3HJ8XC2zc-125" value="" style="endArrow=diamondThin;endFill=0;endSize=24;html=1;rounded=0;entryX=0;entryY=0.5;entryDx=0;entryDy=0;exitX=0.4;exitY=-0.016;exitDx=0;exitDy=0;exitPerimeter=0;" edge="1" parent="1" source="djiI9uQT8ii3HJ8XC2zc-50" target="djiI9uQT8ii3HJ8XC2zc-47">
          <mxGeometry width="160" relative="1" as="geometry">
            <mxPoint x="680" y="1060" as="sourcePoint" />
            <mxPoint x="830" y="1010" as="targetPoint" />
            <Array as="points">
              <mxPoint x="798" y="960" />
              <mxPoint x="680" y="960" />
              <mxPoint x="680" y="855" />
            </Array>
          </mxGeometry>
        </mxCell>
        <mxCell id="djiI9uQT8ii3HJ8XC2zc-127" value="" style="endArrow=diamondThin;endFill=0;endSize=24;html=1;rounded=0;exitX=0.5;exitY=0;exitDx=0;exitDy=0;entryX=0;entryY=0.5;entryDx=0;entryDy=0;" edge="1" parent="1" source="djiI9uQT8ii3HJ8XC2zc-20" target="djiI9uQT8ii3HJ8XC2zc-10">
          <mxGeometry width="160" relative="1" as="geometry">
            <mxPoint x="760" y="560" as="sourcePoint" />
            <mxPoint x="920" y="560" as="targetPoint" />
            <Array as="points">
              <mxPoint x="445" y="570" />
            </Array>
          </mxGeometry>
        </mxCell>
        <mxCell id="djiI9uQT8ii3HJ8XC2zc-128" value="" style="endArrow=diamondThin;endFill=1;endSize=24;html=1;rounded=0;exitX=0.5;exitY=0;exitDx=0;exitDy=0;entryX=0.315;entryY=1.125;entryDx=0;entryDy=0;entryPerimeter=0;" edge="1" parent="1" source="djiI9uQT8ii3HJ8XC2zc-29" target="djiI9uQT8ii3HJ8XC2zc-28">
          <mxGeometry width="160" relative="1" as="geometry">
            <mxPoint x="340" y="940" as="sourcePoint" />
            <mxPoint x="500" y="940" as="targetPoint" />
          </mxGeometry>
        </mxCell>
        <mxCell id="djiI9uQT8ii3HJ8XC2zc-129" value="" style="endArrow=diamondThin;endFill=0;endSize=24;html=1;rounded=0;exitX=0.018;exitY=0.145;exitDx=0;exitDy=0;exitPerimeter=0;entryX=0.742;entryY=1.049;entryDx=0;entryDy=0;entryPerimeter=0;" edge="1" parent="1" source="djiI9uQT8ii3HJ8XC2zc-62" target="djiI9uQT8ii3HJ8XC2zc-28">
          <mxGeometry width="160" relative="1" as="geometry">
            <mxPoint x="850" y="1270" as="sourcePoint" />
            <mxPoint x="1010" y="1270" as="targetPoint" />
            <Array as="points">
              <mxPoint x="550" y="1209" />
            </Array>
          </mxGeometry>
        </mxCell>
      </root>
    </mxGraphModel>
  </diagram>
</mxfile>
